<?xml version="1.0" encoding="UTF-8"?>
<svg version="1.1" xmlns="http://www.w3.org/2000/svg" width="1024" height="1024">
<path d="M0 0 C1.6874269 0.00015917 3.37485866 0.00585622 5.06225586 0.01586914 C6.39189613 0.01799156 6.39189613 0.01799156 7.74839783 0.02015686 C10.59133215 0.02577324 13.43418892 0.03832848 16.27709961 0.05102539 C18.19962452 0.05603828 20.12215065 0.06060155 22.04467773 0.06469727 C26.7680151 0.07574798 31.49129419 0.09302356 36.21459961 0.11352539 C36.21459961 0.44352539 36.21459961 0.77352539 36.21459961 1.11352539 C37.3425293 1.26047852 38.47045898 1.40743164 39.63256836 1.55883789 C52.19635024 3.3057967 64.14346633 6.23377823 76.21459961 10.11352539 C76.93244629 10.34410645 77.65029297 10.5746875 78.38989258 10.81225586 C101.99754402 18.59481177 125.62770304 32.50538227 142.77709961 50.64086914 C144.39840717 52.35825097 144.39840717 52.35825097 147.21459961 54.55102539 C178.54728745 81.31436292 196.00614558 127.29885855 200.21459961 167.11352539 C200.52339572 172.53381735 200.60624128 177.93541461 200.58959961 183.36352539 C200.58839111 184.0996405 200.58718262 184.83575562 200.5859375 185.59417725 C200.42993155 220.92476952 190.77051053 254.50414366 170.70556641 283.78710938 C168.58366399 286.88656523 166.96693074 289.43026898 166.21459961 293.11352539 C167.08084961 293.83668945 167.08084961 293.83668945 167.96459961 294.57446289 C168.70709961 295.20610352 169.44959961 295.83774414 170.21459961 296.48852539 C170.95709961 297.11500977 171.69959961 297.74149414 172.46459961 298.38696289 C173.33084961 299.24161133 173.33084961 299.24161133 174.21459961 300.11352539 C174.21459961 300.77352539 174.21459961 301.43352539 174.21459961 302.11352539 C174.76631836 302.3365332 175.31803711 302.55954102 175.88647461 302.78930664 C178.94516721 304.52906636 181.02198081 306.77117021 183.46459961 309.30102539 C187.34949057 313.27963796 191.32584276 317.06391482 195.55444336 320.67602539 C197.54005541 322.39533183 199.3960236 324.21917538 201.21459961 326.11352539 C199.86287114 330.1973188 198.14523719 332.49036058 195.02709961 335.42602539 C192.17446868 338.12878079 189.50855782 340.89389346 186.94897461 343.87133789 C183.06200338 348.36146887 178.88704616 352.51636678 174.65209961 356.67602539 C170.543623 360.7118499 166.49059341 364.70388145 162.81225586 369.14086914 C161.9550293 370.1218457 161.09780273 371.10282227 160.21459961 372.11352539 C159.55459961 372.11352539 158.89459961 372.11352539 158.21459961 372.11352539 C157.90522461 372.94883789 157.90522461 372.94883789 157.58959961 373.80102539 C155.66459187 377.03853841 153.17609059 378.7958368 150.21459961 381.11352539 C144.84085195 378.44512712 141.12985702 374.17345292 137.02709961 369.91040039 C135.42612145 368.27441168 133.82454081 366.63901239 132.22241211 365.00415039 C129.70754676 362.42717743 127.19761856 359.84591834 124.69799805 357.25415039 C122.27937181 354.75114245 119.84248059 352.26717686 117.40209961 349.78540039 C116.65613525 349.00219421 115.9101709 348.21898804 115.14160156 347.41204834 C114.43737061 346.70090881 113.73313965 345.98976929 113.00756836 345.25708008 C112.39421631 344.62437195 111.78086426 343.99166382 111.14892578 343.33978271 C109.23532856 341.85538177 109.23532856 341.85538177 106.66650391 342.3147583 C103.40865125 343.37608255 100.76140742 345.01320592 97.83959961 346.80102539 C80.57368467 356.99602824 60.96276987 362.33192336 41.21459961 365.11352539 C40.56942383 365.20851318 39.92424805 365.30350098 39.25952148 365.40136719 C-7.98785237 371.56286032 -58.35738694 358.42023174 -96.15161133 329.38891602 C-135.38089252 298.76522131 -161.7422774 256.655757 -168.44946289 206.98461914 C-168.56032227 206.0371582 -168.67118164 205.08969727 -168.78540039 204.11352539 C-168.89625977 203.21762695 -169.00711914 202.32172852 -169.12133789 201.39868164 C-173.35649387 160.5923815 -164.07053424 118.39429568 -141.07055664 84.22290039 C-139.61196769 82.24053688 -139.61196769 82.24053688 -139.78540039 80.11352539 C-138.79540039 80.11352539 -137.80540039 80.11352539 -136.78540039 80.11352539 C-136.45862305 79.07905273 -136.45862305 79.07905273 -136.12524414 78.02368164 C-134.41088917 74.30008266 -132.04430433 71.60601238 -129.34790039 68.55102539 C-128.36906959 67.42556291 -127.39118017 66.2992809 -126.41430664 65.17211914 C-125.95556152 64.64730957 -125.49681641 64.1225 -125.02416992 63.58178711 C-123.97660094 62.34014741 -123.00941318 61.03136635 -122.06274414 59.71118164 C-121.6412207 59.18395508 -121.21969727 58.65672852 -120.78540039 58.11352539 C-120.12540039 58.11352539 -119.46540039 58.11352539 -118.78540039 58.11352539 C-118.78540039 57.45352539 -118.78540039 56.79352539 -118.78540039 56.11352539 C-117.14188582 54.75175617 -115.47017383 53.42390473 -113.78540039 52.11352539 C-113.04290039 51.37102539 -112.30040039 50.62852539 -111.53540039 49.86352539 C-93.67098282 31.99910782 -71.14113514 17.29736436 -46.78540039 10.11352539 C-45.79540039 10.11352539 -44.80540039 10.11352539 -43.78540039 10.11352539 C-43.45540039 9.45352539 -43.12540039 8.79352539 -42.78540039 8.11352539 C-40.17461921 7.35753131 -37.62763341 6.73414315 -34.97290039 6.17602539 C-34.18278564 6.00417725 -33.3926709 5.8323291 -32.57861328 5.65527344 C-25.45523176 4.15396418 -18.28477703 3.04769825 -11.07324219 2.06494141 C-7.05843903 1.51038846 -3.87957776 0.1163498 0 0 Z M-37.78540039 122.11352539 C-38.61297852 122.85086914 -39.44055664 123.58821289 -40.29321289 124.34790039 C-54.82467625 137.94615051 -64.55512171 157.1308172 -65.78540039 177.11352539 C-65.83825195 177.96946289 -65.89110352 178.82540039 -65.94555664 179.70727539 C-66.66827305 203.08558027 -56.80379536 223.79575041 -41.12573242 240.73022461 C-37.9698904 243.98723752 -34.56584782 246.62671944 -30.78540039 249.11352539 C-29.90625977 249.70649414 -29.02711914 250.29946289 -28.12133789 250.91040039 C-9.89992863 262.40314909 14.10515168 265.55983913 35.07324219 260.93579102 C38.17096416 260.12758866 41.19002837 259.16075735 44.21459961 258.11352539 C45.26389648 257.76290039 46.31319336 257.41227539 47.39428711 257.05102539 C63.54329318 251.01087766 78.81026237 238.23651618 87.21459961 223.11352539 C87.79854492 222.07711914 88.38249023 221.04071289 88.98413086 219.97290039 C99.09552047 200.98477506 101.71702183 179.70181328 95.60131836 158.88696289 C91.49766722 147.2033387 85.64335126 137.22412098 77.21459961 128.11352539 C76.16852539 126.93016602 76.16852539 126.93016602 75.10131836 125.72290039 C60.29101578 109.80250201 39.15935719 102.58452456 17.88378906 101.71069336 C-2.4126014 101.37669319 -22.85089103 108.16086958 -37.78540039 122.11352539 Z " fill="#FEEB00" transform="translate(763.785400390625,303.886474609375)"/>
<path d="M0 0 C1.28640381 -0.00419449 2.57280762 -0.00838898 3.89819336 -0.01271057 C5.31819228 -0.00722614 6.73819045 -0.00154312 8.15818787 0.00431824 C9.66074201 0.00324442 11.16329575 0.00130427 12.66584778 -0.00143433 C16.75779635 -0.00628951 20.84963603 0.00139698 24.94157147 0.01151872 C29.27744227 0.02036415 33.61331025 0.01854002 37.94918823 0.01815796 C45.28075441 0.01909655 52.61227943 0.02777955 59.9438324 0.04142761 C67.36311157 0.05519326 74.78235278 0.06245004 82.2016449 0.06193542 C150.66007037 0.05815942 150.66007037 0.05815942 182.33990288 0.52351952 C184.57403859 0.55514562 186.80824606 0.58209375 189.04249763 0.60405922 C192.02862337 0.63532919 195.01375993 0.68546953 197.99949646 0.74211121 C198.86137259 0.74791136 199.72324871 0.75371151 200.61124229 0.75968742 C202.96005249 0.81784058 202.96005249 0.81784058 206.63645935 1.24723816 C209.0411652 4.85429694 208.91913048 7.45924244 208.89524841 11.62443542 C208.90050537 12.74681107 208.90050537 12.74681107 208.90586853 13.89186096 C208.91467339 16.36588305 208.90884176 18.83961939 208.90208435 21.31364441 C208.90343122 23.03092504 208.90537193 24.7482053 208.90788269 26.46548462 C208.91083214 30.06424083 208.90654153 33.66289778 208.89720154 37.26164246 C208.88579851 41.8810925 208.89237294 46.50031038 208.90434647 51.11975193 C208.91156259 54.66528076 208.90927844 58.21075425 208.90409088 61.75628471 C208.90275414 63.45998601 208.90440296 65.16369229 208.90904999 66.86738777 C208.91411213 69.24487307 208.90641003 71.62197852 208.89524841 73.99943542 C208.89929688 74.7075386 208.90334534 75.41564178 208.90751648 76.14520264 C208.86499026 81.01870725 208.86499026 81.01870725 206.63645935 83.24723816 C204.59436607 83.49333382 204.59436607 83.49333382 202.03010559 83.48774719 C201.05972855 83.49049652 200.0893515 83.49324585 199.08956909 83.49607849 C198.02142471 83.48888794 196.95328033 83.48169739 195.85276794 83.47428894 C194.73081528 83.47458099 193.60886261 83.47487305 192.45291138 83.47517395 C188.73016224 83.47377631 185.00761119 83.4581946 181.28489685 83.44255066 C178.70942799 83.43882208 176.13395772 83.43597438 173.55848694 83.43397522 C167.46342782 83.42710912 161.36845092 83.41133295 155.27342284 83.39127624 C148.33518723 83.3689393 141.39694824 83.35792937 134.45868564 83.34788537 C120.18457175 83.32696728 105.91051809 83.29177754 91.63645935 83.24723816 C91.79911789 83.99994492 91.96177643 84.75265167 92.12936401 85.52816772 C92.77115683 88.96949274 92.74806176 92.23503367 92.7341156 95.73551941 C92.73270065 96.43871811 92.73128571 97.14191681 92.72982788 97.86642456 C92.72426044 100.0975736 92.7117141 102.3286198 92.69895935 104.55973816 C92.69394014 106.07861691 92.68937797 107.59749725 92.68528748 109.11637878 C92.67430171 112.82669828 92.65705969 116.53695817 92.63645935 120.24723816 C93.62645935 120.24723816 94.61645935 120.24723816 95.63645935 120.24723816 C125.96979268 120.24723816 156.30312602 120.24723816 186.63645935 120.24723816 C186.63645935 120.57723816 186.63645935 120.90723816 186.63645935 121.24723816 C187.84302185 121.43286316 187.84302185 121.43286316 189.07395935 121.62223816 C189.91958435 121.82848816 190.76520935 122.03473816 191.63645935 122.24723816 C193.32617257 125.6266646 192.90316716 129.46652503 192.98802185 133.18864441 C193.01162781 134.09598831 193.03523376 135.00333221 193.05955505 135.93817139 C193.1333564 138.89524719 193.19836265 141.85241562 193.26145935 144.80973816 C193.28391724 145.80688843 193.30637512 146.8040387 193.32951355 147.83140564 C194.25363098 190.0128949 194.25363098 190.0128949 191.63645935 195.24723816 C158.63645935 195.24723816 125.63645935 195.24723816 91.63645935 195.24723816 C91.96645935 198.54723816 92.29645935 201.84723816 92.63645935 205.24723816 C92.71017869 207.83232962 92.74498165 210.41893111 92.7341156 213.00505066 C92.73270065 213.67897858 92.73128571 214.35290649 92.72982788 215.04725647 C92.72432398 217.15563301 92.71179148 219.26389488 92.69895935 221.37223816 C92.69393187 222.82015327 92.68937118 224.26807008 92.68528748 225.71598816 C92.6743864 229.22644075 92.65719137 232.73682823 92.63645935 236.24723816 C93.3692511 236.24501755 94.10204285 236.24279694 94.85704041 236.24050903 C104.28350472 236.21331347 113.7099632 236.19535441 123.13645935 236.18473816 C123.89114628 236.18388214 124.64583321 236.18302612 125.42338943 236.18214417 C152.8392041 236.15469133 180.22976495 236.49466991 207.63645935 237.24723816 C208.84723052 240.87955166 208.78402797 244.21020153 208.78172302 247.99162292 C208.78508163 248.77888763 208.78844025 249.56615234 208.79190063 250.37727356 C208.80140456 252.98107985 208.80335323 255.58482185 208.8044281 258.18864441 C208.80764021 259.99560574 208.81100424 261.80256681 208.81451416 263.60952759 C208.82050342 267.39656681 208.82235418 271.18358321 208.82176208 274.97062683 C208.82166028 279.83219328 208.83533265 284.6936143 208.85253429 289.55514622 C208.86362916 293.2859566 208.8656821 297.01673149 208.86515236 300.74755669 C208.8663355 302.5405776 208.87077587 304.33359935 208.87848473 306.12660408 C208.88823747 308.62859055 208.88542583 311.13025675 208.87937927 313.63224792 C208.88499878 314.37775406 208.89061829 315.12326019 208.89640808 315.89135742 C208.86477756 321.01891995 208.86477756 321.01891995 206.63645935 323.24723816 C203.79520272 323.44291736 201.05153022 323.51202153 198.20921326 323.49447632 C197.32686823 323.49689073 196.4445232 323.49930515 195.53544044 323.50179273 C192.56122698 323.50745527 189.58722587 323.49874738 186.61302185 323.49015808 C184.48791953 323.49123033 182.3628175 323.49316816 180.23771667 323.49591064 C174.45273265 323.50077128 168.66782539 323.49308814 162.88285065 323.4829576 C156.84059735 323.47419688 150.79834661 323.47593416 144.75608826 323.47631836 C134.60747487 323.47538081 124.45889132 323.4666847 114.31028748 323.45304871 C102.56213187 323.43732224 90.81400896 323.43205055 79.06584358 323.43278426 C67.78377451 323.4333938 56.50171613 323.42829509 45.21965027 323.41999245 C40.40946876 323.41645384 35.59929103 323.41462837 30.78910828 323.41409874 C25.12899318 323.41309701 19.46890573 323.40701434 13.80879974 323.3969326 C11.72621581 323.39400223 9.6436287 323.39278331 7.56104279 323.39336014 C4.72856724 323.39384794 1.89617011 323.38822372 -0.93629456 323.38095093 C-1.76954947 323.38249953 -2.60280437 323.38404813 -3.46130943 323.38564366 C-9.13518308 323.36141694 -9.13518308 323.36141694 -11.36354065 322.24723816 C-11.56971886 295.35152799 -11.7555774 268.45569808 -11.92604065 241.55973816 C-11.93561491 240.05441064 -11.93561491 240.05441064 -11.9453826 238.51867247 C-12.31933153 179.52835474 -12.42081114 120.54947296 -11.92604065 61.55973816 C-11.9196427 60.79338185 -11.91324475 60.02702554 -11.90665293 59.23744631 C-11.74763489 40.24048742 -11.56902205 21.24375641 -11.36354065 2.24723816 C-7.42999593 0.40506469 -4.32777628 -0.00211424 0 0 Z M122.63645935 121.24723816 C122.63645935 121.57723816 122.63645935 121.90723816 122.63645935 122.24723816 C124.94645935 122.24723816 127.25645935 122.24723816 129.63645935 122.24723816 C129.63645935 121.91723816 129.63645935 121.58723816 129.63645935 121.24723816 C127.32645935 121.24723816 125.01645935 121.24723816 122.63645935 121.24723816 Z " fill="#FEEB00" transform="translate(93.36354064941406,327.7527618408203)"/>
<path d="M0 0 C0.85120487 -0.0045988 1.70240975 -0.00919759 2.57940871 -0.01393574 C3.51480638 -0.00879218 4.45020405 -0.00364862 5.41394711 0.00165081 C6.40740247 -0.00076361 7.40085784 -0.00317802 8.42441791 -0.0056656 C11.76864475 -0.01132207 15.11268221 -0.00262475 18.4569006 0.00596905 C20.84815682 0.00489666 23.23941279 0.00295862 25.63066769 0.00021648 C31.46032557 -0.00413658 37.28992178 0.00082011 43.11957283 0.01006678 C49.9040181 0.02044186 56.68845106 0.02038084 63.47290277 0.01989421 C75.57483981 0.0193934 87.67675043 0.02856044 99.77867794 0.04307842 C111.53063596 0.05716933 123.28257073 0.06424908 135.03453732 0.06358624 C135.75845826 0.06354628 136.48237921 0.06350632 137.22823716 0.06346516 C138.31221357 0.06340462 138.31221357 0.06340462 139.4180885 0.06334287 C152.7854338 0.06265357 166.15276919 0.06853957 179.52011128 0.07749609 C184.25309067 0.08051626 188.98606825 0.0815761 193.7190485 0.08202839 C200.08422193 0.08302993 206.44937077 0.08911099 212.81453609 0.09919453 C215.15674279 0.10212544 217.49895232 0.10334371 219.84116077 0.10276699 C223.02609392 0.10227937 226.21095724 0.10790162 229.3958807 0.1151762 C230.33350909 0.1136276 231.27113749 0.112079 232.23717886 0.11048347 C233.08577599 0.11370791 233.93437311 0.11693236 234.8086853 0.12025452 C235.54447597 0.12095894 236.28026663 0.12166337 237.03835398 0.12238914 C238.84142208 0.24888897 238.84142208 0.24888897 240.84142208 1.24888897 C240.98682082 8.00338524 241.12881914 14.75794742 241.26866817 21.51256084 C241.31642387 23.80098801 241.36490274 26.08940022 241.41417599 28.37779522 C241.65780705 39.71409794 241.88750523 51.05042687 241.93517208 62.38951397 C241.94165768 63.17517742 241.94814327 63.96084087 241.9548254 64.77031231 C241.96523005 77.5281456 241.96523005 77.5281456 239.27501583 81.64732647 C238.61630489 82.29959209 237.95759396 82.95185772 237.27892208 83.62388897 C234.41905061 86.5999743 231.7079305 89.56725486 229.15392208 92.81138897 C226.18612569 96.56632193 223.18316696 100.2888253 220.1546545 103.99473858 C215.63877818 109.52285037 211.17057706 115.07304246 206.84142208 120.74888897 C201.47346744 127.78667966 195.87670604 134.63012324 190.27794552 141.48472881 C188.45129418 143.72799573 186.64395718 145.98621305 184.84142208 148.24888897 C181.9888718 151.8280889 179.1072303 155.382317 176.21544552 158.92979717 C171.45652122 164.76822847 166.73034478 170.62702243 162.09142208 176.56138897 C156.91792227 183.17636713 151.62172443 189.68204929 146.26671505 196.15123272 C139.25264705 204.62497973 132.29416157 213.12712232 125.53673458 221.80748272 C123.27287632 224.71240225 120.9749588 227.58919825 118.67296505 230.46397686 C117.95478603 231.36104855 117.23660702 232.25812023 116.496665 233.18237591 C115.95043484 233.86432522 115.40420467 234.54627453 114.84142208 235.24888897 C115.48471683 235.25312091 116.12801157 235.25735285 116.79080009 235.26171303 C132.42175617 235.36488182 148.05266335 235.47349861 163.68353844 235.58822823 C171.24241665 235.64357762 178.80129958 235.69706237 186.36022091 235.74620342 C192.94624834 235.78902431 199.53224077 235.8352969 206.11821419 235.88576752 C209.60753222 235.91238543 213.09684324 235.93723883 216.58620167 235.95796299 C220.47527731 235.9811257 224.36427038 236.01199255 228.25328732 236.0435667 C230.00115788 236.0521999 230.00115788 236.0521999 231.78433895 236.0610075 C232.83748287 236.07079632 233.89062679 236.08058514 234.97568417 236.09067059 C235.89655536 236.09712314 236.81742655 236.10357569 237.76620293 236.11022377 C239.84142208 236.24888897 239.84142208 236.24888897 240.84142208 237.24888897 C240.94713579 239.82451316 240.98820331 242.37346072 240.98668575 244.9498167 C240.99004436 245.7562965 240.99340298 246.5627763 240.99686337 247.39369488 C241.00640223 250.07330627 241.00831794 252.75285538 241.00939083 255.43248272 C241.01260136 257.28714302 241.01596527 259.14180307 241.01947689 260.99646282 C241.02547551 264.8896115 241.02731604 268.78273795 241.02672482 272.67589092 C241.02662315 277.67427575 241.04027683 282.67251866 241.05749702 287.67086983 C241.0685939 291.50290874 241.07064474 295.3349131 241.07011509 299.16696644 C241.07129865 301.01022678 241.07574132 302.85348791 241.08344746 304.69673252 C241.09320094 307.27077949 241.09038784 309.84451515 241.084342 312.4185667 C241.08996151 313.1859164 241.09558102 313.95326611 241.10137081 314.74386883 C241.06973762 320.02057343 241.06973762 320.02057343 238.84142208 322.24888897 C237.03079128 322.4995873 237.03079128 322.4995873 234.79027462 322.50057125 C233.9375774 322.50578675 233.08488018 322.51100224 232.20634365 322.51637578 C231.26414219 322.51191434 230.32194073 322.50745289 229.35118771 322.50285625 C228.35450321 322.50597624 227.35781872 322.50909622 226.33093166 322.51231074 C222.96978611 322.52032887 219.60881919 322.51395227 216.24767208 322.50767803 C213.84671071 322.5103862 211.44575017 322.51394615 209.04479122 322.51829815 C203.18759743 322.52649388 197.33045053 322.52526286 191.47325802 322.51947287 C186.71454605 322.51496282 181.95584846 322.51434062 177.19713497 322.5165205 C176.1826254 322.5169802 176.1826254 322.5169802 175.14762068 322.51744919 C173.7738072 322.51808861 172.39999373 322.51873704 171.02618027 322.51939437 C158.13282055 322.52510247 145.23948924 322.51853226 132.34613419 322.50779364 C121.27423675 322.49885768 110.20238126 322.50040959 99.13048458 322.50963116 C86.28441585 322.52032533 73.43837203 322.5245531 60.59229946 322.51840663 C59.22343604 322.51776951 57.85457262 322.51714077 56.48570919 322.5165205 C55.81213768 322.51621195 55.13856618 322.5159034 54.44458342 322.5155855 C49.68956849 322.51385599 44.93456933 322.51677915 40.17955685 322.52147961 C33.78401626 322.52766258 27.3885364 322.5232837 20.99300289 322.51169109 C18.63950896 322.50903647 16.28600838 322.50982317 13.93251705 322.51421642 C10.73213844 322.51964175 7.53201838 322.51287454 4.33165646 322.50285625 C3.38945499 322.5073177 2.44725353 322.51177914 1.47650051 322.51637578 C0.62380329 322.51116029 -0.22889393 322.50594479 -1.10743046 322.50057125 C-1.84680096 322.50024655 -2.58617146 322.49992184 -3.34794712 322.4995873 C-5.15857792 322.24888897 -5.15857792 322.24888897 -7.15857792 320.24888897 C-7.39856316 317.85040466 -7.51474739 315.56308541 -7.54432011 313.15977764 C-7.56885258 312.06412487 -7.56885258 312.06412487 -7.59388065 310.9463377 C-7.64363986 308.51987747 -7.67665238 306.09365363 -7.70545292 303.66685772 C-7.71610027 302.83541052 -7.72674763 302.00396332 -7.73771763 301.14732075 C-7.79123329 296.73630875 -7.82994475 292.3254103 -7.85877323 287.91417217 C-7.88532722 284.28097151 -7.94077067 280.65005159 -8.02283573 277.0176878 C-8.1222073 272.61894372 -8.17110183 268.22224886 -8.18522739 263.82243061 C-8.19855025 262.15550463 -8.22872742 260.48861512 -8.27700901 258.82233524 C-8.62465444 246.08532419 -5.88555262 239.48065916 2.84142208 230.24888897 C3.84558388 228.99422082 4.83641657 227.7285251 5.80235958 226.44420147 C13.15244288 217.09603727 20.56546155 207.79900813 28.02501583 198.53795147 C32.05829312 193.5227294 36.00891015 188.44899293 39.92442989 183.34166241 C46.80844691 174.36999808 53.82470719 165.50455702 60.90392208 156.68638897 C65.03890279 151.53438177 69.10994413 146.33988026 73.12291622 141.09239483 C76.62137706 136.52070933 80.17587182 131.99484146 83.740592 127.47471905 C86.76630624 123.63265191 89.74999594 119.76192323 92.71642208 115.87388897 C97.02741036 110.22734643 101.49193704 104.71359185 106.02452755 99.24351788 C109.16883918 95.41881739 112.14215221 91.50272412 115.04601192 87.49156475 C116.11545544 86.01588528 116.11545544 86.01588528 117.20650387 84.5103941 C117.74602688 83.7640974 118.28554989 83.01780071 118.84142208 82.24888897 C118.21027839 82.25073256 117.57913469 82.25257614 116.92886543 82.25447559 C101.58099649 82.29861919 86.23314958 82.33172825 70.88523293 82.35251331 C63.46313544 82.36283164 56.04108029 82.37690256 48.61900997 82.39976788 C42.15092005 82.41968477 35.68286079 82.43260136 29.21474105 82.43706596 C25.78902569 82.43967623 22.36339805 82.44582298 18.93771076 82.46034908 C15.11612824 82.4764229 11.29463202 82.47686975 7.47301388 82.47593975 C5.76398136 82.48672558 5.76398136 82.48672558 4.02042294 82.4977293 C2.46182552 82.49360531 2.46182552 82.49360531 0.87174129 82.489398 C-0.03253762 82.49124159 -0.93681654 82.49308517 -1.86849785 82.49498463 C-4.15857792 82.24888897 -4.15857792 82.24888897 -7.15857792 80.24888897 C-7.46109875 77.71704914 -7.56816912 75.42814468 -7.54676151 72.89342022 C-7.55201847 72.13556225 -7.55727543 71.37770428 -7.56269169 70.59688091 C-7.57592547 68.08484231 -7.56714201 65.57343432 -7.55701542 63.06138897 C-7.55903519 61.32025817 -7.56194582 59.57912819 -7.56571293 57.8380003 C-7.57014085 54.1861444 -7.56369029 50.5345084 -7.5496912 46.88267803 C-7.53259895 42.19472025 -7.54243764 37.50727766 -7.56040859 32.8193388 C-7.57123387 29.22317381 -7.5678059 25.62713157 -7.56002522 22.03096294 C-7.55801972 20.30214153 -7.56049468 18.57330907 -7.56746387 16.84450054 C-7.5750579 14.43081805 -7.56350383 12.01797729 -7.54676151 9.60435772 C-7.55283421 8.88533276 -7.5589069 8.16630779 -7.56516361 7.42549419 C-7.53952885 5.43712139 -7.53952885 5.43712139 -7.15857792 2.24888897 C-4.08050265 0.19683879 -3.46892149 -0.00102457 0 0 Z " fill="#FEEB00" transform="translate(338.15857791900635,328.7511110305786)"/>
<path d="M0 0 C3.68929171 3.22120128 6.7723847 6.86872241 9.33984375 11.04296875 C9.33984375 11.70296875 9.33984375 12.36296875 9.33984375 13.04296875 C9.99984375 13.37296875 10.65984375 13.70296875 11.33984375 14.04296875 C14.82554762 23.88204775 14.75450487 34.91227143 10.66015625 44.546875 C5.39410504 54.5025162 -2.7982541 61.6644357 -13.66015625 65.04296875 C-16.61036459 65.46965463 -19.49511185 65.52115765 -22.47265625 65.48046875 C-23.26800781 65.47072021 -24.06335938 65.46097168 -24.8828125 65.45092773 C-35.41272262 65.13369699 -41.84976838 61.69067474 -49.4609375 54.4140625 C-54.50235914 48.97863988 -58.45525273 42.75574963 -58.78515625 35.16796875 C-58.74390625 34.46671875 -58.70265625 33.76546875 -58.66015625 33.04296875 C-59.32015625 32.71296875 -59.98015625 32.38296875 -60.66015625 32.04296875 C-59.01881803 18.26436633 -56.19936022 8.58247331 -45.66015625 -0.95703125 C-31.49977514 -11.20530707 -13.8340737 -10.24989031 0 0 Z " fill="#FEEC00" transform="translate(804.66015625,458.95703125)"/>
<path d="M0 0 C0.33 0 0.66 0 1 0 C1 1.98 1 3.96 1 6 C0.67 6 0.34 6 0 6 C0 4.02 0 2.04 0 0 Z " fill="#FFED00" transform="translate(592,479)"/>
<path d="M0 0 C1.65 0 3.3 0 5 0 C5 0.33 5 0.66 5 1 C3.35 1 1.7 1 0 1 C0 0.67 0 0.34 0 0 Z " fill="#F6E100" transform="translate(787,671)"/>
<path d="M0 0 C1.65 0 3.3 0 5 0 C5 0.33 5 0.66 5 1 C3.35 1 1.7 1 0 1 C0 0.67 0 0.34 0 0 Z " fill="#F5E100" transform="translate(771,671)"/>
<path d="M0 0 C4 1 4 1 4 1 Z " fill="#F5E000" transform="translate(781,671)"/>
<path d="M0 0 C1 4 1 4 1 4 Z " fill="#FEEA00" transform="translate(287,481)"/>
<path d="M0 0 C0.99 0.495 0.99 0.495 2 1 C1.34 1.66 0.68 2.32 0 3 C0 2.01 0 1.02 0 0 Z " fill="#FEEA00" transform="translate(400,480)"/>
<path d="" fill="#FEEC00" transform="translate(0,0)"/>
<path d="" fill="#FFEE00" transform="translate(0,0)"/>
<path d="" fill="#FDEB00" transform="translate(0,0)"/>
<path d="" fill="#FFEC00" transform="translate(0,0)"/>
<path d="" fill="#FDEA00" transform="translate(0,0)"/>
<path d="M0 0 C3 1 3 1 3 1 Z " fill="#FEE900" transform="translate(773,407)"/>
<path d="" fill="#FEEA00" transform="translate(0,0)"/>
<path d="M0 0 C2 1 2 1 2 1 Z " fill="#F6E301" transform="translate(778,671)"/>
<path d="M0 0 C2 1 2 1 2 1 Z " fill="#F6E300" transform="translate(756,670)"/>
<path d="M0 0 C2 1 2 1 2 1 Z " fill="#F6E300" transform="translate(738,667)"/>
<path d="" fill="#FEEB00" transform="translate(0,0)"/>
<path d="" fill="#FEED00" transform="translate(0,0)"/>
<path d="" fill="#FFEE00" transform="translate(0,0)"/>
<path d="" fill="#FEE900" transform="translate(0,0)"/>
<path d="" fill="#FDE800" transform="translate(0,0)"/>
<path d="" fill="#FFEE00" transform="translate(0,0)"/>
<path d="" fill="#FDED00" transform="translate(0,0)"/>
<path d="" fill="#FBE700" transform="translate(0,0)"/>
<path d="M0 0 C2 1 2 1 2 1 Z " fill="#FCE900" transform="translate(781,407)"/>
<path d="" fill="#FEEC00" transform="translate(0,0)"/>
<path d="" fill="#F9E200" transform="translate(0,0)"/>
<path d="M0 0 C2 1 2 1 2 1 Z " fill="#F8E000" transform="translate(697,320)"/>
<path d="M0 0 C2 1 2 1 2 1 Z " fill="#F5DE00" transform="translate(752,304)"/>
<path d="" fill="#F7E101" transform="translate(0,0)"/>
<path d="" fill="#F8E501" transform="translate(0,0)"/>
<path d="" fill="#F6E100" transform="translate(0,0)"/>
<path d="" fill="#F7E300" transform="translate(0,0)"/>
<path d="" fill="#F7E300" transform="translate(0,0)"/>
<path d="" fill="#FCEA00" transform="translate(0,0)"/>
<path d="" fill="#F8E700" transform="translate(0,0)"/>
<path d="" fill="#F8E400" transform="translate(0,0)"/>
<path d="" fill="#F8E400" transform="translate(0,0)"/>
<path d="" fill="#F9E400" transform="translate(0,0)"/>
<path d="" fill="#FDEA00" transform="translate(0,0)"/>
<path d="" fill="#FDED00" transform="translate(0,0)"/>
<path d="" fill="#FCEA00" transform="translate(0,0)"/>
<path d="" fill="#FEEC00" transform="translate(0,0)"/>
<path d="" fill="#FDEC00" transform="translate(0,0)"/>
<path d="" fill="#FFEE00" transform="translate(0,0)"/>
<path d="" fill="#FEEC00" transform="translate(0,0)"/>
<path d="" fill="#FCE500" transform="translate(0,0)"/>
<path d="" fill="#FFEA00" transform="translate(0,0)"/>
<path d="" fill="#F9E500" transform="translate(0,0)"/>
<path d="" fill="#FFED00" transform="translate(0,0)"/>
<path d="" fill="#FFEE00" transform="translate(0,0)"/>
<path d="" fill="#FDEC00" transform="translate(0,0)"/>
<path d="" fill="#FBE700" transform="translate(0,0)"/>
<path d="" fill="#FFEB00" transform="translate(0,0)"/>
<path d="" fill="#FFED00" transform="translate(0,0)"/>
<path d="" fill="#FEEC00" transform="translate(0,0)"/>
<path d="" fill="#FEEB00" transform="translate(0,0)"/>
<path d="" fill="#FFED00" transform="translate(0,0)"/>
<path d="" fill="#FCE700" transform="translate(0,0)"/>
<path d="" fill="#FFEC00" transform="translate(0,0)"/>
<path d="" fill="#FFEC00" transform="translate(0,0)"/>
<path d="" fill="#FFED00" transform="translate(0,0)"/>
<path d="" fill="#FFEC00" transform="translate(0,0)"/>
<path d="" fill="#FFEF00" transform="translate(0,0)"/>
<path d="" fill="#FFEE00" transform="translate(0,0)"/>
<path d="" fill="#FEEE00" transform="translate(0,0)"/>
<path d="" fill="#FDEB00" transform="translate(0,0)"/>
<path d="" fill="#FEED00" transform="translate(0,0)"/>
<path d="" fill="#FFEF00" transform="translate(0,0)"/>
<path d="" fill="#FEED00" transform="translate(0,0)"/>
<path d="" fill="#FFEF00" transform="translate(0,0)"/>
<path d="" fill="#FEEE00" transform="translate(0,0)"/>
<path d="" fill="#FCE900" transform="translate(0,0)"/>
<path d="" fill="#FFE700" transform="translate(0,0)"/>
<path d="" fill="#FEEC01" transform="translate(0,0)"/>
<path d="" fill="#FCEA00" transform="translate(0,0)"/>
<path d="" fill="#FFEF00" transform="translate(0,0)"/>
<path d="" fill="#FFEE00" transform="translate(0,0)"/>
<path d="" fill="#FFED00" transform="translate(0,0)"/>
<path d="" fill="#FEEB00" transform="translate(0,0)"/>
<path d="" fill="#FCEA00" transform="translate(0,0)"/>
<path d="" fill="#FFEA00" transform="translate(0,0)"/>
<path d="" fill="#FFEB00" transform="translate(0,0)"/>
<path d="" fill="#FFF000" transform="translate(0,0)"/>
<path d="" fill="#FDEE00" transform="translate(0,0)"/>
<path d="" fill="#FFED00" transform="translate(0,0)"/>
<path d="" fill="#FEE900" transform="translate(0,0)"/>
<path d="" fill="#FEEB00" transform="translate(0,0)"/>
<path d="" fill="#FFEC00" transform="translate(0,0)"/>
<path d="" fill="#FEEA00" transform="translate(0,0)"/>
<path d="" fill="#FEE900" transform="translate(0,0)"/>
<path d="" fill="#FFEB00" transform="translate(0,0)"/>
<path d="" fill="#FFEB00" transform="translate(0,0)"/>
<path d="" fill="#FCEA00" transform="translate(0,0)"/>
<path d="" fill="#FFEC00" transform="translate(0,0)"/>
<path d="" fill="#FFEE00" transform="translate(0,0)"/>
<path d="" fill="#FCEB00" transform="translate(0,0)"/>
<path d="" fill="#FEE800" transform="translate(0,0)"/>
<path d="" fill="#FEEA00" transform="translate(0,0)"/>
<path d="" fill="#FEED00" transform="translate(0,0)"/>
<path d="" fill="#FFEE00" transform="translate(0,0)"/>
<path d="" fill="#FEEA00" transform="translate(0,0)"/>
<path d="" fill="#FEE900" transform="translate(0,0)"/>
<path d="" fill="#FEEB00" transform="translate(0,0)"/>
<path d="" fill="#FEE900" transform="translate(0,0)"/>
<path d="" fill="#FFED00" transform="translate(0,0)"/>
<path d="" fill="#FDEA00" transform="translate(0,0)"/>
<path d="" fill="#FCEC00" transform="translate(0,0)"/>
<path d="" fill="#FFED00" transform="translate(0,0)"/>
<path d="" fill="#FDEA00" transform="translate(0,0)"/>
<path d="" fill="#FEE800" transform="translate(0,0)"/>
<path d="" fill="#FFE900" transform="translate(0,0)"/>
<path d="" fill="#FEEA00" transform="translate(0,0)"/>
<path d="" fill="#FFED00" transform="translate(0,0)"/>
<path d="" fill="#FFED00" transform="translate(0,0)"/>
<path d="" fill="#FEEA00" transform="translate(0,0)"/>
<path d="" fill="#FFEC00" transform="translate(0,0)"/>
<path d="" fill="#FEEC00" transform="translate(0,0)"/>
<path d="" fill="#FEE800" transform="translate(0,0)"/>
<path d="" fill="#FEEA00" transform="translate(0,0)"/>
<path d="" fill="#FEEA00" transform="translate(0,0)"/>
<path d="" fill="#FFEC00" transform="translate(0,0)"/>
<path d="" fill="#FFEB00" transform="translate(0,0)"/>
<path d="" fill="#FFEF00" transform="translate(0,0)"/>
<path d="" fill="#FEE900" transform="translate(0,0)"/>
<path d="" fill="#FDEC00" transform="translate(0,0)"/>
<path d="" fill="#FEEA00" transform="translate(0,0)"/>
<path d="" fill="#FDEB00" transform="translate(0,0)"/>
<path d="" fill="#FFED00" transform="translate(0,0)"/>
<path d="" fill="#FBEA00" transform="translate(0,0)"/>
<path d="" fill="#FFEE01" transform="translate(0,0)"/>
<path d="" fill="#FFEF00" transform="translate(0,0)"/>
<path d="" fill="#FFEB00" transform="translate(0,0)"/>
<path d="" fill="#FFEC00" transform="translate(0,0)"/>
<path d="" fill="#FFEE00" transform="translate(0,0)"/>
<path d="" fill="#FCEA00" transform="translate(0,0)"/>
<path d="" fill="#FCE600" transform="translate(0,0)"/>
<path d="" fill="#F8E800" transform="translate(0,0)"/>
<path d="" fill="#FFEB00" transform="translate(0,0)"/>
<path d="" fill="#FFEA00" transform="translate(0,0)"/>
<path d="" fill="#FFED00" transform="translate(0,0)"/>
<path d="" fill="#FFEC00" transform="translate(0,0)"/>
<path d="" fill="#FFEE00" transform="translate(0,0)"/>
<path d="" fill="#F9E500" transform="translate(0,0)"/>
<path d="" fill="#FEEB00" transform="translate(0,0)"/>
<path d="" fill="#F8E301" transform="translate(0,0)"/>
<path d="" fill="#FCEA00" transform="translate(0,0)"/>
<path d="" fill="#FDEB00" transform="translate(0,0)"/>
<path d="" fill="#FFEA00" transform="translate(0,0)"/>
<path d="" fill="#FAE800" transform="translate(0,0)"/>
<path d="" fill="#FFEA00" transform="translate(0,0)"/>
<path d="" fill="#FBE700" transform="translate(0,0)"/>
<path d="" fill="#F7E300" transform="translate(0,0)"/>
<path d="" fill="#F1DD01" transform="translate(0,0)"/>
<path d="" fill="#F4DF00" transform="translate(0,0)"/>
<path d="" fill="#F6E000" transform="translate(0,0)"/>
<path d="" fill="#F0DD00" transform="translate(0,0)"/>
<path d="" fill="#F4DD00" transform="translate(0,0)"/>
<path d="" fill="#0E0D00" transform="translate(0,0)"/>
</svg>
